<svg xmlns="http://www.w3.org/2000/svg" viewBox="0 0 90 90"><defs><style>.cls-1{fill:#e8a50a;}.cls-2{fill:#fff;opacity:0.3;}.cls-3{fill:#934921;}.cls-4{fill:#ecf0f1;}.cls-5{fill:#e64c3c;}.cls-6{fill:#3f97ff;}</style></defs><title>donut</title><g id="donut"><g id="donut-2" data-name="donut"><path class="cls-1" d="M84.92,44.18A40,40,0,0,0,5,45c0,.16,0,.33,0,.49v0c0,.13,0,.26,0,.38,0,.3,0,.6,0,.91s0,.6.06.9,0,.6.08.89h0c0,.38.06.75.1,1.13A40,40,0,0,0,84.12,53.1a40.68,40.68,0,0,0,.74-5.65c0-.46,0-.92,0-1.39l0,0c0-.17.05-.34.05-.51v0c0-.17,0-.34,0-.52S84.94,44.46,84.92,44.18ZM45,62.08A17.07,17.07,0,0,1,27.92,45c0-.29,0-.57,0-.85A17.07,17.07,0,1,1,45,62.08Z"/><path class="cls-2" d="M79,44.49V44.3a34.06,34.06,0,0,0-68.11.7c0,.08,0,.16,0,.23v.54c0,.26,0,.51,0,.75l0,.67.11,1.27c0,.19,0,.38.05.58a34.07,34.07,0,0,0,67.19,2.87A34.8,34.8,0,0,0,79,47.1c0-.36,0-.72,0-1.08,0,0,0-.53,0-.63S79,45,79,45C79,44.83,79.05,44.66,79,44.49ZM45,68A23,23,0,0,1,22,45c0-.38,0-.75,0-1.12A23,23,0,1,1,45,68Z"/><path class="cls-3" d="M84.93,45.52c0-.17,0-.34,0-.52s0-.54,0-.82A39.95,39.95,0,0,0,5,45c0,.16,0,.33,0,.49v0c0,.13,0,.26,0,.38,0,.3,0,.6,0,.91s0,.6.05.9,0,.6.07.89a10,10,0,0,0,7.13,1.87,1.8,1.8,0,0,1,.23.86V61a2.57,2.57,0,0,0,5.15,0V59.56h.05v-3a1.84,1.84,0,0,1,3.68,0l0,6A2.56,2.56,0,0,0,24,65h0a2.56,2.56,0,0,0,2.55-2.55V44c.48-.32,1-.64,1.43-1,0-.26.07-.53.11-.79a15,15,0,0,1,.32-1.55c.07-.26.14-.51.21-.76s.16-.49.25-.74.18-.49.28-.72.19-.46.3-.68v0c.07-.15.13-.29.21-.43l.18-.35c.09-.16.17-.32.27-.47l.08-.15.28-.46.13-.21.39-.57c.13-.18.26-.37.4-.54l.15-.19c.13-.16.25-.31.38-.46a16.73,16.73,0,0,1,1.59-1.63,18.4,18.4,0,0,1,1.8-1.41l.05,0c.41-.27.83-.53,1.25-.77l.68-.36.69-.32.58-.24c.32-.14.66-.26,1-.37l.44-.14.44-.13.3-.08.41-.1.49-.1a6.67,6.67,0,0,1,.67-.12l.82-.11h0l.54,0q.58,0,1.19,0l.88,0q.52,0,1,.09l.67.09h.06l.66.11.33.07.53.12.23.06.44.13.53.17a14.17,14.17,0,0,1,1.44.54c.46.2.9.41,1.33.65h0c.43.24.85.49,1.27.77a17.34,17.34,0,0,1,2.86,2.38,17.11,17.11,0,0,1,4.6,9.33h0a27.68,27.68,0,0,1,5.49,1.71v8.33a2.19,2.19,0,0,0,2.19,2.19h0a2.19,2.19,0,0,0,2.19-2.19v-3a2.19,2.19,0,0,1,1.7-2,2,2,0,0,1,.47-.05h0a2.15,2.15,0,0,1,1.94,1.21,2.07,2.07,0,0,1,.24,1v2.67h0v7a2.18,2.18,0,0,0,2.18,2.19h0a2.19,2.19,0,0,0,2.19-2.19V57.56h.05V54.88a2.19,2.19,0,0,1,2.19-2.19h0a2.17,2.17,0,0,1,1.27.4,40.68,40.68,0,0,0,.74-5.65c0-.11,0-.23.05-.35,0-.35,0-.68,0-1,0-.18,0-.35,0-.52Z"/><path class="cls-4" d="M58.12,25.8a1,1,0,0,1-1.35.47l-5.19-2.5A1,1,0,0,1,52.46,22l5.19,2.5A1,1,0,0,1,58.12,25.8Z"/><path class="cls-5" d="M39.43,15.8A1,1,0,0,1,39,17.15l-5.12,2.63A1,1,0,1,1,33,18l5.12-2.63A1,1,0,0,1,39.43,15.8Z"/><path class="cls-4" d="M24.46,31.74A1,1,0,0,1,23,31.67l-3.88-4.26a1,1,0,1,1,1.49-1.36l3.88,4.26A1,1,0,0,1,24.46,31.74Z"/><path class="cls-6" d="M23.95,19.41a1,1,0,0,1-.47,1.34l-5.19,2.5a1,1,0,0,1-.87-1.82l5.19-2.49A1,1,0,0,1,23.95,19.41Z"/><path class="cls-6" d="M16.55,39.56a1,1,0,0,1-1,1H9.78a1,1,0,0,1,0-2h5.76A1,1,0,0,1,16.55,39.56Z"/><path class="cls-6" d="M68.34,23.84a1,1,0,0,1,.42,1.36l-2.68,5.1a1,1,0,1,1-1.79-.94L67,24.26A1,1,0,0,1,68.34,23.84Z"/><path class="cls-5" d="M63.38,13.35a1,1,0,0,1-1,1H56.61a1,1,0,1,1,0-2h5.76A1,1,0,0,1,63.38,13.35Z"/><path class="cls-5" d="M78,41.76a1,1,0,0,1-1.4-.26l-3.27-4.75A1,1,0,0,1,75,35.61l3.27,4.75A1,1,0,0,1,78,41.76Z"/></g></g></svg>